# xmcd
#
# Track frame offsets:
#	187
#	15875
#	23667
#	36870
#	54872
#	68500
#	87312
#	101980
#	116420
#	132900
#	150025
#	165145
#
# Disc length: 2431 seconds
#
# Revision: 1
# Processed by: cddbd v1.5.1PL0 Copyright (c) Steve Scherf et al.
# Submitted via: CDex 1.50Beta5
#
DISCID=78097d0c
DTITLE=タイガース - 世界はボクらを待っている
DYEAR=1994
DGENRE=Pop
TTITLE0=君だけに愛を
TTITLE1=銀河のロマンス(インストゥルメンタル)
TTITLE2=モナリザの微笑
TTITLE3=花の首飾り
TTITLE4=僕のマリー
TTITLE5=落葉の物語
TTITLE6=真赤なジャケット
TTITLE7=イエロー・キャッツ
TTITLE8=星のプリンス
TTITLE9=こっちを向いて
TTITLE10=シーサイド・バウンド
TTITLE11=銀河のロマンス
EXTD=
EXTT0=
EXTT1=
EXTT2=
EXTT3=
EXTT4=
EXTT5=
EXTT6=
EXTT7=
EXTT8=
EXTT9=
EXTT10=
EXTT11=
PLAYORDER=
